<svg width="571" height="100" viewBox="0 0 571 100" fill="none" xmlns="http://www.w3.org/2000/svg">
<path d="M193 97.0048H170.194L170.194 91.6874C170.194 88.6447 171.012 86.2765 172.646 84.5828C174.783 82.3574 177.772 81.2447 181.612 81.2447C185.393 81.2447 188.313 82.185 190.371 84.0658C192.124 85.6709 193 88.0637 193 91.2443V97.0048ZM187.491 90.8455C187.382 88.6398 185.482 87.5369 181.789 87.5369C179.967 87.5369 178.53 87.8175 177.476 88.3788C176.413 88.9401 175.881 89.6983 175.881 90.6535V90.8455H187.491Z" fill="white"/>
<path d="M193 73.0464V79.2057H170.194L170.194 73.0464H193Z" fill="white"/>
<path d="M179.81 62.5145V53.918H180.755C185.147 53.918 188.308 54.5729 190.238 55.8825C192.345 57.3103 193.399 59.4225 193.399 62.2191C193.399 64.9664 192.365 67.1229 190.297 68.6885C188.209 70.2444 185.344 71.0223 181.701 71.0223C178.008 71.0223 175.098 70.2394 172.971 68.6738C170.844 67.1081 169.781 64.9664 169.781 62.2486C169.781 58.6446 171.662 56.0302 175.423 54.4055L177.609 60.3727C176.89 60.4614 176.324 60.6682 175.911 60.9931C175.487 61.3082 175.275 61.707 175.275 62.1895C175.275 63.8832 177.604 64.73 182.262 64.73C184.241 64.73 185.679 64.543 186.575 64.1688C187.471 63.7946 187.919 63.1988 187.919 62.3815C187.919 62.0566 187.84 61.7612 187.683 61.4953C187.525 61.2294 187.304 61.0079 187.018 60.8306C186.732 60.6435 186.388 60.5008 185.984 60.4023C185.57 60.294 185.113 60.2398 184.61 60.2398V62.5145H179.81Z" fill="white"/>
<path d="M193 45.7198V51.8791H170.194L170.194 45.7198H193Z" fill="white"/>
<path d="M193 35.1583L193 41.3176H175.659V44.7148H170.194L170.194 31.6282L175.659 31.6282L175.659 35.1583H193Z" fill="white"/>
<path d="M193 14.7744V21.1405L190.105 21.5984V25.7489L193 26.2511V32.6172L170.194 27.1373L170.194 19.6044L193 14.7744ZM185.216 22.3222L182.557 22.721C182.547 22.7308 182.414 22.7505 182.158 22.78C181.942 22.7997 181.085 22.9031 179.588 23.0902C179.421 23.1099 179.194 23.1345 178.909 23.1641C178.614 23.1936 178.244 23.233 177.801 23.2822L175.645 23.4743C175.851 23.4939 176.083 23.5235 176.339 23.5629C176.595 23.5924 176.876 23.6269 177.181 23.6663C177.791 23.7352 178.215 23.7844 178.451 23.814C178.687 23.8435 178.83 23.8632 178.879 23.8731L181.641 24.3014L185.216 24.9218V22.3222Z" fill="white"/>
<path d="M193 2.79494V13.5774L170.194 13.5774L170.194 7.41811L187.52 7.41811V2.79495L193 2.79494Z" fill="white"/>
<path d="M263.724 23.5H234.599V39.25H262.099V60H234.599V76.25H263.724V97H210.099V2.75H263.724V23.5Z" fill="white"/>
<path d="M285.888 46.75L256.513 2.75H286.763L299.513 27.125L315.263 2.75H345.513L314.388 46.75L349.513 97H319.638L300.763 66.25L278.638 97H249.013L285.888 46.75Z" fill="white"/>
<path d="M361.352 46H369.477C378.477 46 382.977 42.0833 382.977 34.25C382.977 26.4167 378.477 22.5 369.477 22.5H361.352V46ZM361.352 97H336.852V2.75H375.852C386.435 2.75 394.518 5.5 400.102 11C405.768 16.5 408.602 24.25 408.602 34.25C408.602 44.25 405.768 52 400.102 57.5C394.518 63 386.435 65.75 375.852 65.75H361.352V97Z" fill="white"/>
<path d="M452.693 23.5H423.568V39.25H451.068V60H423.568V76.25H452.693V97H399.068V2.75H452.693V23.5Z" fill="white"/>
<path d="M472.357 44.875H476.982C481.816 44.875 485.524 43.875 488.107 41.875C490.691 39.875 491.982 37 491.982 33.25C491.982 29.5 490.691 26.625 488.107 24.625C485.524 22.625 481.816 21.625 476.982 21.625H472.357V44.875ZM526.232 97H495.732L472.357 60.75V97H447.857V2.75H485.982C491.232 2.75 495.816 3.54167 499.732 5.125C503.649 6.625 506.857 8.70833 509.357 11.375C511.941 14.0417 513.857 17.125 515.107 20.625C516.441 24.125 517.107 27.875 517.107 31.875C517.107 39.0417 515.357 44.875 511.857 49.375C508.441 53.7917 503.357 56.7917 496.607 58.375L526.232 97Z" fill="white"/>
<path d="M549.853 23.5V97H525.353V23.5H505.228V2.75H569.978V23.5H549.853Z" fill="white"/>
<path d="M25.375 41.625L55.25 2.75H85.5L48.125 47.375L89 97H57.25L25.375 56.125V97H0.875V2.75H25.375V41.625Z" fill="white"/>
<path d="M101.874 2.75V97H77.374V2.75H101.874Z" fill="white"/>
<path d="M134.813 23.5V97H110.313V23.5H90.1885V2.75H154.938V23.5H134.813Z" fill="white"/>
</svg>
